<svg width="100" height="20" viewBox="0 0 100 20" fill="none" xmlns="http://www.w3.org/2000/svg">
<path d="M16.673 10.1717C17.7437 9.36184 17.1709 7.65517 15.8284 7.65517H13.3992C12.7853 7.65517 12.243 7.25521 12.0617 6.66868L11.3375 4.32637C10.9309 3.01106 9.0691 3.01106 8.66246 4.32637L7.93832 6.66868C7.75699 7.25521 7.21469 7.65517 6.60078 7.65517H4.12961C2.79142 7.65517 2.21592 9.35274 3.27822 10.1665L5.39469 11.7879C5.85885 12.1435 6.05314 12.7501 5.88196 13.3092L5.11296 15.8207C4.71416 17.1232 6.22167 18.1704 7.30301 17.342L9.14861 15.9281C9.65097 15.5432 10.349 15.5432 10.8514 15.9281L12.6807 17.3295C13.7636 18.159 15.2725 17.1079 14.8696 15.8046L14.09 13.2827C13.9159 12.7198 14.113 12.1081 14.5829 11.7526L16.673 10.1717Z" fill="#FFAD33"/>
<path d="M36.673 10.1717C37.7437 9.36184 37.1709 7.65517 35.8284 7.65517H33.3992C32.7853 7.65517 32.243 7.25521 32.0617 6.66868L31.3375 4.32637C30.9309 3.01106 29.0691 3.01106 28.6625 4.32637L27.9383 6.66868C27.757 7.25521 27.2147 7.65517 26.6008 7.65517H24.1296C22.7914 7.65517 22.2159 9.35274 23.2782 10.1665L25.3947 11.7879C25.8588 12.1435 26.0531 12.7501 25.882 13.3092L25.113 15.8207C24.7142 17.1232 26.2217 18.1704 27.303 17.342L29.1486 15.9281C29.651 15.5432 30.349 15.5432 30.8514 15.9281L32.6807 17.3295C33.7636 18.159 35.2725 17.1079 34.8696 15.8046L34.09 13.2827C33.9159 12.7198 34.113 12.1081 34.5829 11.7526L36.673 10.1717Z" fill="#FFAD33"/>
<path d="M56.673 10.1717C57.7437 9.36184 57.1709 7.65517 55.8284 7.65517H53.3992C52.7853 7.65517 52.243 7.25521 52.0617 6.66868L51.3375 4.32637C50.9309 3.01106 49.0691 3.01106 48.6625 4.32637L47.9383 6.66868C47.757 7.25521 47.2147 7.65517 46.6008 7.65517H44.1296C42.7914 7.65517 42.2159 9.35274 43.2782 10.1665L45.3947 11.7879C45.8588 12.1435 46.0531 12.7501 45.882 13.3092L45.113 15.8207C44.7142 17.1232 46.2217 18.1704 47.303 17.342L49.1486 15.9281C49.651 15.5432 50.349 15.5432 50.8514 15.9281L52.6807 17.3295C53.7636 18.159 55.2725 17.1079 54.8696 15.8046L54.09 13.2827C53.9159 12.7198 54.113 12.1081 54.5829 11.7526L56.673 10.1717Z" fill="#FFAD33"/>
<path d="M76.673 10.1717C77.7437 9.36184 77.1709 7.65517 75.8284 7.65517H73.3992C72.7853 7.65517 72.243 7.25521 72.0617 6.66868L71.3375 4.32637C70.9309 3.01106 69.0691 3.01106 68.6625 4.32637L67.9383 6.66868C67.757 7.25521 67.2147 7.65517 66.6008 7.65517H64.1296C62.7914 7.65517 62.2159 9.35274 63.2782 10.1665L65.3947 11.7879C65.8588 12.1435 66.0531 12.7501 65.882 13.3092L65.113 15.8207C64.7142 17.1232 66.2217 18.1704 67.303 17.342L69.1486 15.9281C69.651 15.5432 70.349 15.5432 70.8514 15.9281L72.6807 17.3295C73.7636 18.159 75.2725 17.1079 74.8696 15.8046L74.09 13.2827C73.9159 12.7198 74.113 12.1081 74.5829 11.7526L76.673 10.1717Z" fill="#FFAD33"/>
<path d="M89.9998 1.83329C89.7507 1.83145 89.5062 1.90032 89.2947 2.0319C89.0831 2.16348 88.9133 2.35236 88.8048 2.57662L86.9531 6.32995L82.8098 6.93162C82.5634 6.96713 82.3318 7.07094 82.1413 7.23129C81.9508 7.39163 81.809 7.60212 81.732 7.83889C81.655 8.07567 81.6458 8.32929 81.7055 8.57101C81.7652 8.81274 81.8914 9.03292 82.0698 9.20662L85.0698 12.1283L84.3615 16.255C84.3193 16.5001 84.3466 16.7521 84.4402 16.9825C84.5338 17.213 84.69 17.4126 84.8911 17.559C85.0922 17.7053 85.3302 17.7925 85.5783 17.8106C85.8264 17.8287 86.0745 17.7771 86.2948 17.6616L89.9998 15.7133V1.83329Z" fill="#FFAD33"/>
<path opacity="0.25" d="M90 1.83595C90.2492 1.83404 90.5001 2.00001 90.5001 2.00001C90.5001 2.00001 91.0866 2.20807 91.1951 2.44195L93.0468 6.35634L97.1902 6.98383C97.4366 7.02086 97.6682 7.12912 97.8587 7.29635C98.0492 7.46358 98.191 7.68309 98.268 7.93003C98.345 8.17697 98.3542 8.44147 98.2945 8.69357C98.2348 8.94567 98.1086 9.1753 97.9302 9.35645L94.9301 12.4035L95.6385 16.7072C95.6806 16.9629 95.6533 17.2257 95.5598 17.466C95.4662 17.7064 95.31 17.9146 95.1089 18.0672C94.9077 18.2198 94.6697 18.3107 94.4216 18.3296C94.1736 18.3486 93.9254 18.2947 93.7051 18.1743L90 16.1423V1.83595Z" fill="black"/>
</svg>
