<svg width="24" height="25" viewBox="0 0 24 25" fill="none" xmlns="http://www.w3.org/2000/svg">
<g clip-path="url(#clip0_1_3684)">
<path d="M23.7663 12.7765C23.7663 11.9608 23.7001 11.1406 23.559 10.3381H12.2402V14.9591H18.722C18.453 16.4495 17.5888 17.7679 16.3233 18.6056V21.604H20.1903C22.4611 19.514 23.7663 16.4274 23.7663 12.7765Z" fill="#4285F4"/>
<path d="M12.2401 24.5008C15.4766 24.5008 18.2059 23.4382 20.1945 21.6039L16.3276 18.6055C15.2517 19.3375 13.8627 19.752 12.2445 19.752C9.11388 19.752 6.45946 17.6399 5.50705 14.8003H1.5166V17.8912C3.55371 21.9434 7.7029 24.5008 12.2401 24.5008V24.5008Z" fill="#34A853"/>
<path d="M5.50277 14.8002C5.00011 13.3099 5.00011 11.696 5.50277 10.2057V7.11475H1.51674C-0.185266 10.5055 -0.185266 14.5004 1.51674 17.8912L5.50277 14.8002V14.8002Z" fill="#FBBC04"/>
<path d="M12.2401 5.24966C13.9509 5.2232 15.6044 5.86697 16.8434 7.04867L20.2695 3.62262C18.1001 1.5855 15.2208 0.465534 12.2401 0.500809C7.7029 0.500809 3.55371 3.05822 1.5166 7.11481L5.50264 10.2058C6.45065 7.36173 9.10947 5.24966 12.2401 5.24966V5.24966Z" fill="#EA4335"/>
</g>
<defs>
<clipPath id="clip0_1_3684">
<rect width="24" height="24" fill="white" transform="translate(0 0.5)"/>
</clipPath>
</defs>
</svg>
