<svg width="40" height="40" viewBox="0 0 40 40" fill="none" xmlns="http://www.w3.org/2000/svg">
<g clip-path="url(#clip0_1_1608)">
<path d="M33.3333 18.3334C32.9257 15.4004 31.5651 12.6828 29.461 10.5992C27.357 8.51563 24.6262 7.18161 21.6894 6.80267C18.7526 6.42372 15.7727 7.02088 13.2086 8.50216C10.6446 9.98343 8.63871 12.2666 7.49996 15.0001M6.66663 8.33341V15.0001H13.3333" stroke="black" stroke-width="2" stroke-linecap="round" stroke-linejoin="round"/>
<path d="M6.66663 21.6667C7.07422 24.5997 8.43484 27.3173 10.5389 29.4009C12.6429 31.4845 15.3737 32.8186 18.3105 33.1975C21.2473 33.5764 24.2273 32.9793 26.7913 31.498C29.3553 30.0167 31.3612 27.7335 32.5 25.0001M33.3333 31.6667V25.0001H26.6666" stroke="black" stroke-width="2" stroke-linecap="round" stroke-linejoin="round"/>
</g>
<defs>
<clipPath id="clip0_1_1608">
<rect width="40" height="40" fill="white"/>
</clipPath>
</defs>
</svg>
